<svg xmlns="http://www.w3.org/2000/svg" width="64" height="64" viewBox="0 0 64 64" role="img" aria-label="BU International Center">
  <defs>
    <linearGradient id="g" x1="0" y1="0" x2="1" y2="1">
      <stop offset="0" stop-color="#0b1f3f"/>
      <stop offset="1" stop-color="#0d5dcc"/>
    </linearGradient>
  </defs>
  <rect x="2" y="2" width="60" height="60" rx="16" fill="url(#g)"/>
  <path d="M13 18h16c9 0 14 4 14 11 0 4-2 7-6 9 5 2 8 5 8 10 0 8-6 12-16 12H13V18Zm12 9v7h4c3 0 4-1 4-3s-1-4-4-4h-4Zm0 16v8h5c3 0 5-1 5-4s-2-4-5-4h-5Z" fill="#fff" transform="translate(0 -7) scale(.92)"/>
  <path d="M42 15h10v25c0 10-5 17-15 19l-3-9c6-1 8-4 8-10V15Z" fill="#fff" opacity=".92"/>
  <circle cx="52" cy="12" r="5" fill="#d31f72"/>
</svg>
