<svg xmlns="http://www.w3.org/2000/svg" width="504" height="128" viewBox="0 0 504 128" role="img" aria-labelledby="title desc">
  <title id="title">Bangkok University International Center</title>
  <desc id="desc">A blue BU service mark with the Bangkok University International Center wordmark.</desc>
  <defs>
    <linearGradient id="markGradient" x1="0" y1="0" x2="1" y2="1">
      <stop offset="0" stop-color="#0b1f3f"/>
      <stop offset="1" stop-color="#0d5dcc"/>
    </linearGradient>
    <linearGradient id="accentGradient" x1="0" y1="0" x2="1" y2="0">
      <stop offset="0" stop-color="#1474e8"/>
      <stop offset="1" stop-color="#d31f72"/>
    </linearGradient>
  </defs>

  <rect x="8" y="8" width="112" height="112" rx="28" fill="url(#markGradient)"/>
  <path d="M30 36h29c17 0 27 7 27 20 0 8-4 14-11 17 10 3 15 10 15 20 0 15-11 23-31 23H30V36Zm22 18v13h7c5 0 8-2 8-6s-3-7-8-7h-7Zm0 31v14h9c6 0 9-2 9-7s-3-7-9-7h-9Z" fill="#fff"/>
  <path d="M87 36h18v47c0 19-9 31-28 34l-5-17c10-2 15-8 15-18V36Z" fill="#fff" opacity=".92"/>
  <circle cx="103" cy="25" r="9" fill="#d31f72"/>

  <text x="146" y="53" fill="#0b1f3f" font-family="Inter, Segoe UI, Arial, sans-serif" font-size="27" font-weight="760" letter-spacing="-.4">BANGKOK UNIVERSITY</text>
  <text x="146" y="84" fill="#41516a" font-family="Inter, Segoe UI, Arial, sans-serif" font-size="20" font-weight="650" letter-spacing="1.1">INTERNATIONAL CENTER</text>
  <rect x="146" y="99" width="220" height="5" rx="2.5" fill="url(#accentGradient)"/>
</svg>
